<?xml version="1.0" encoding="UTF-8" standalone="no"?>
<!-- Created with Inkscape (http://www.inkscape.org/) -->

<svg
   xmlns:dc="http://purl.org/dc/elements/1.1/"
   xmlns:cc="http://creativecommons.org/ns#"
   xmlns:rdf="http://www.w3.org/1999/02/22-rdf-syntax-ns#"
   xmlns:svg="http://www.w3.org/2000/svg"
   xmlns="http://www.w3.org/2000/svg"
   xmlns:xlink="http://www.w3.org/1999/xlink"
   xmlns:sodipodi="http://sodipodi.sourceforge.net/DTD/sodipodi-0.dtd"
   xmlns:inkscape="http://www.inkscape.org/namespaces/inkscape"
   width="210mm"
   height="297mm"
   viewBox="0 0 210 297"
   version="1.1"
   id="svg16"
   inkscape:version="0.92.2 (5c3e80d, 2017-08-06)"
   sodipodi:docname="an.svg">
  <defs
     id="defs10">
    <inkscape:perspective
       sodipodi:type="inkscape:persp3d"
       inkscape:vp_x="-93.458733 : 310.29065 : 1"
       inkscape:vp_y="0 : -1071.7329 : 0"
       inkscape:vp_z="285.59184 : 310.29065 : 1"
       inkscape:persp3d-origin="96.066554 : 363.34142 : 1"
       id="perspective28" />
    <meshgradient
       inkscape:collect="always"
       id="meshgradient367"
       gradientUnits="userSpaceOnUse"
       x="52.583679"
       y="586.50299">
      <meshrow
         id="meshrow369">
        <meshpatch
           id="meshpatch371">
          <stop
             path="c 168.56,0  337.119,0  505.679,0"
             style="stop-color:#ffffff;stop-opacity:1"
             id="stop373" />
          <stop
             path="c 0,161.897  0,323.794  0,485.692"
             style="stop-color:#e6e6e6;stop-opacity:1"
             id="stop375" />
          <stop
             path="c -168.56,0  -337.119,0  -505.679,0"
             style="stop-color:#ffffff;stop-opacity:1"
             id="stop377" />
          <stop
             path="c 0,-161.897  0,-323.794  0,-485.692"
             style="stop-color:#e6e6e6;stop-opacity:1"
             id="stop379" />
        </meshpatch>
      </meshrow>
    </meshgradient>
  </defs>
  <sodipodi:namedview
     id="base"
     pagecolor="#ffffff"
     bordercolor="#666666"
     borderopacity="1.0"
     inkscape:pageopacity="0.0"
     inkscape:pageshadow="2"
     inkscape:zoom="0.35"
     inkscape:cx="400"
     inkscape:cy="560"
     inkscape:document-units="mm"
     inkscape:current-layer="layer1"
     showgrid="false"
     inkscape:window-width="1920"
     inkscape:window-height="986"
     inkscape:window-x="-11"
     inkscape:window-y="-11"
     inkscape:window-maximized="1" />
  <metadata
     id="metadata13">
    <rdf:RDF>
      <cc:Work
         rdf:about="">
        <dc:format>image/svg+xml</dc:format>
        <dc:type
           rdf:resource="http://purl.org/dc/dcmitype/StillImage" />
        <dc:title></dc:title>
      </cc:Work>
    </rdf:RDF>
  </metadata>
  <g
     inkscape:label="Layer 1"
     inkscape:groupmode="layer"
     id="layer1">
    <ellipse
       id="path18"
       cx="79.752975"
       cy="72.860123"
       rx="57.074402"
       ry="56.318451"
       style="stroke-width:0.26458332" />
    <path
       sodipodi:type="star"
       id="path26"
       sodipodi:sides="5"
       sodipodi:cx="81.642857"
       sodipodi:cy="225.18452"
       sodipodi:r1="74.391243"
       sodipodi:r2="37.195621"
       sodipodi:arg1="0.9151007"
       sodipodi:arg2="1.5434192"
       inkscape:flatsided="false"
       inkscape:rounded="0"
       inkscape:randomized="0"
       d="m 127,284.14881 -44.338958,-21.7826 -43.08042,24.17649 7.014992,-48.90005 -36.305788,-33.50097 48.674463,-8.4393 20.64221,-44.88122 23.067481,43.68428 49.06337,5.76285 -34.41797,35.43766 z"
       inkscape:transform-center-x="0.62927121"
       inkscape:transform-center-y="-6.5026007"
       style="stroke-width:0.26458332" />
    <g
       sodipodi:type="inkscape:box3d"
       id="g30"
       inkscape:perspectiveID="#perspective28"
       inkscape:corner0="-0.16326722 : 0.16307652 : 0 : 1"
       inkscape:corner7="-0.27278723 : 0.15260839 : 0.25 : 1">
      <path
         sodipodi:type="inkscape:box3dside"
         id="path32"
         style="fill:#353564;fill-rule:evenodd;stroke:none;stroke-width:1.39085603;stroke-linejoin:round"
         inkscape:box3dsidetype="6"
         d="M 133.04762,132.18436 V 118.7762 l 35.09239,-30.381624 v 10.323641 z"
         points="133.04762,118.7762 168.14001,88.394576 168.14001,98.718217 133.04762,132.18436 " />
      <path
         sodipodi:type="inkscape:box3dside"
         id="path36"
         style="fill:#8686bf;fill-rule:evenodd;stroke:none;stroke-width:1.39085603;stroke-linejoin:round"
         inkscape:box3dsidetype="3"
         d="m 133.04762,132.18436 34.11241,21.90888 V 138.66579 L 133.04762,118.7762 Z"
         points="167.16003,154.09324 167.16003,138.66579 133.04762,118.7762 133.04762,132.18436 " />
      <path
         sodipodi:type="inkscape:box3dside"
         id="path38"
         style="fill:#d7d7ff;fill-rule:evenodd;stroke:none;stroke-width:1.39085603;stroke-linejoin:round"
         inkscape:box3dsidetype="14"
         d="M 167.16003,154.09324 V 138.66579 L 197.4584,99.790832 v 11.480648 z"
         points="167.16003,138.66579 197.4584,99.790832 197.4584,111.27148 167.16003,154.09324 " />
      <path
         sodipodi:type="inkscape:box3dside"
         id="path40"
         style="fill:#afafde;fill-rule:evenodd;stroke:none;stroke-width:1.39085603;stroke-linejoin:round"
         inkscape:box3dsidetype="13"
         d="M 133.04762,118.7762 167.16003,138.66579 197.4584,99.790832 168.14001,88.394576 Z"
         points="167.16003,138.66579 197.4584,99.790832 168.14001,88.394576 133.04762,118.7762 " />
      <path
         sodipodi:type="inkscape:box3dside"
         id="path34"
         style="fill:#4d4d9f;fill-rule:evenodd;stroke:none;stroke-width:1.39085603;stroke-linejoin:round"
         inkscape:box3dsidetype="5"
         d="m 133.04762,132.18436 34.11241,21.90888 30.29837,-42.82176 -29.31839,-12.553263 z"
         points="167.16003,154.09324 197.4584,111.27148 168.14001,98.718217 133.04762,132.18436 " />
      <path
         sodipodi:type="inkscape:box3dside"
         id="path42"
         style="fill:#e9e9ff;fill-rule:evenodd;stroke:none;stroke-width:1.39085603;stroke-linejoin:round"
         inkscape:box3dsidetype="11"
         d="M 168.14001,98.718217 197.4584,111.27148 V 99.790832 L 168.14001,88.394576 Z"
         points="197.4584,111.27148 197.4584,99.790832 168.14001,88.394576 168.14001,98.718217 " />
    </g>
    <path
       sodipodi:type="spiral"
       style="fill:none;fill-rule:evenodd;stroke:#000000;stroke-width:0.26458332"
       id="path58"
       sodipodi:cx="152.70239"
       sodipodi:cy="28.636904"
       sodipodi:expansion="1"
       sodipodi:revolution="3"
       sodipodi:radius="21.408272"
       sodipodi:argument="-18.0142"
       sodipodi:t0="0"
       d="m 152.70239,28.636904 c 0.72015,0.795946 -0.71762,1.363431 -1.32291,1.196925 -1.6403,-0.451218 -1.80072,-2.58915 -1.07094,-3.842756 1.30541,-2.242408 4.40987,-2.357531 6.3626,-0.944946 2.86571,2.073025 2.93229,6.255797 0.81896,8.882439 -2.81674,3.500901 -8.11076,3.514774 -11.40229,0.692966 -4.14205,-3.550957 -4.10127,-9.970019 -0.56697,-13.922122 4.28051,-4.786526 11.83172,-4.690109 16.44196,-0.440986 5.43301,5.007444 5.28041,13.694944 0.315,18.961805 -5.73276,6.080799 -15.55918,5.871673 -21.48165,0.189006 -6.72948,-6.457008 -6.46362,-17.424124 -0.063,-24.001487 7.18051,-7.3788075 19.28958,-7.0560744 26.52132,0.06297 8.02861,7.903492 7.6489,21.155445 -0.18896,29.04117" />
    <path
       style="fill:none;stroke:#000000;stroke-width:0.26458332px;stroke-linecap:butt;stroke-linejoin:miter;stroke-opacity:1"
       d="m 176.1369,182.85119 c 0,5.03968 0,10.07936 0,15.11905 0,0.52579 0.13669,3.50638 0,3.77976 -0.15937,0.31873 -0.59658,0.43721 -0.75595,0.75595 -0.22301,0.44603 0.17332,1.74789 0,2.26786 -0.17818,0.53454 -0.57777,0.97736 -0.75595,1.5119 -0.23906,0.71716 0.18334,1.53448 0,2.26786 -0.13666,0.54663 -0.57778,0.97736 -0.75595,1.5119 -0.26776,0.80329 0.26776,2.22053 0,3.02381 -0.17818,0.53454 -0.57778,0.97737 -0.75596,1.51191 -0.15936,0.4781 0.35636,1.15554 0,1.5119 -0.17818,0.17818 -0.57777,-0.17818 -0.75595,0 -0.17818,0.17818 0,0.50397 0,0.75595 0,0.25199 0,0.50397 0,0.75596 0,2.26785 0,4.53571 0,6.80357 0,0.25198 0,0.50397 0,0.75595 0,0.25198 -0.17818,0.57777 0,0.75595 0.35636,0.35636 1.06114,-0.22538 1.51191,0 0.31873,0.15937 0.43721,0.59659 0.75595,0.75596 0.22538,0.11269 0.57777,-0.17819 0.75595,0 0.17818,0.17817 -0.17818,0.57777 0,0.75595 0.17818,0.17818 0.53057,-0.11269 0.75595,0 0.31874,0.15937 0.43722,0.59658 0.75596,0.75595 0.45076,0.22538 1.03379,-0.15937 1.5119,0 0.53454,0.17818 0.97736,0.57777 1.5119,0.75595 0.23906,0.0797 0.53058,-0.11269 0.75596,0 0.31873,0.15937 0.43721,0.59659 0.75595,0.75596 0.45076,0.22538 1.06114,-0.22539 1.5119,0 0.31874,0.15936 0.43722,0.59658 0.75596,0.75595 0.41009,0.20505 2.81696,-0.20685 3.02381,0 0.37797,0.37798 -0.37798,1.88988 0,2.26785 0.17818,0.17819 0.57777,-0.17817 0.75595,0 0.17818,0.17819 0,0.50397 0,0.75596 0,0.25198 0,0.50397 0,0.75595 0,2.51984 0,5.03968 0,7.55952 0,2.01588 0,4.03175 0,6.04762 0,0.25199 0.17818,0.57778 0,0.75595 -0.17818,0.17818 -0.57777,-0.17817 -0.75595,0 -0.35636,0.35636 0.22538,1.06115 0,1.51191 -0.15937,0.31874 -0.59659,0.43721 -0.75596,0.75595 -0.11269,0.22538 0.11269,0.53057 0,0.75595 -0.15937,0.31874 -0.50397,0.50397 -0.75595,0.75596 -0.25198,0.25198 -0.43722,0.59658 -0.75595,0.75595 -0.22538,0.11269 -0.57777,-0.17818 -0.75595,0 -0.17818,0.17818 0.11269,0.53057 0,0.75595 -0.15937,0.31874 -0.59659,0.43722 -0.75596,0.75595 -0.11269,0.22538 0.17818,0.57778 0,0.75596 -1.56409,1.56409 0.0611,-2.39014 -1.5119,0.75595 -0.11269,0.22538 0.17818,0.57777 0,0.75595 -0.17818,0.17818 -0.53057,-0.11269 -0.75595,0 -0.63748,0.31874 -0.87443,1.19317 -1.51191,1.51191 -0.22538,0.11269 -0.53057,-0.1127 -0.75595,0 -0.31874,0.15936 -0.43721,0.59658 -0.75595,0.75595 -0.22538,0.11269 -0.57778,-0.17818 -0.75595,0 -0.17819,0.17818 0.17817,0.57777 0,0.75595 -0.17819,0.17818 -0.53058,-0.11269 -0.75596,0 -0.31873,0.15937 -0.43721,0.59658 -0.75595,0.75595 -0.22538,0.11269 -0.53057,-0.11269 -0.75595,0 -0.31874,0.15937 -0.43722,0.59659 -0.75595,0.75595 -0.45077,0.22539 -1.06115,-0.22538 -1.51191,0 -0.63747,0.31874 -0.87443,1.19317 -1.5119,1.51191 -0.22539,0.11269 -0.57778,-0.17818 -0.75596,0 -0.17818,0.17818 0.17818,0.57777 0,0.75595 -0.17818,0.17818 -0.57777,-0.17818 -0.75595,0 -0.17818,0.17818 0.17818,0.57778 0,0.75595 -0.17818,0.17819 -0.57777,-0.17817 -0.75595,0 -0.17818,0.17819 0.17818,0.57779 0,0.75596 -0.17818,0.17817 -0.57777,-0.17817 -0.75595,0 -0.17818,0.17817 0,0.50395 0,0.75594 0,0.25199 0,0.50398 0,0.75597"
       id="path60"
       inkscape:connector-curvature="0" />
    <path
       style="fill:none;stroke:#000000;stroke-width:0.26458332px;stroke-linecap:butt;stroke-linejoin:miter;stroke-opacity:1"
       d="M 123.97619,152.61309 C 21.166666,142.78571 15.875,81.55357 21.166666,142.78571"
       id="path62"
       inkscape:connector-curvature="0" />
    <path
       id="path64"
       transform="scale(0.26458333)"
       style="stroke-width:0.99999994;fill:#ff00ff"
       d="m 364.125,430.92578 c -12.93719,0.0651 -25.86007,1.38328 -38.62891,3.58594 -4.85151,0.99587 -16.5302,2.64064 -20.6875,4.8418 -15.89782,8.41742 -34.99369,17.4049 -49.57812,29.6875 -6.52179,6.85413 -10.74148,15.0319 -14.63281,23.61328 -4.17806,9.33569 -7.99173,18.83208 -9.46875,29.03125 -1.47951,8.08395 -2.20094,16.23031 -3.08594,24.39257 -0.71872,5.26674 -1.20216,10.51893 -1.39258,15.8086 -7.96013,-4.41316 -19.02843,-1.9711 -27.85351,3.98242 -0.027,-6.16005 -0.0283,-12.31998 0.11132,-18.47852 l -37.8164,19.26758 c 0.21528,9.42943 0.11549,18.86214 0.0625,28.29297 -0.4757,6.29908 0.73637,12.8218 -0.55664,19.0293 -0.95144,5.04956 -1.65279,9.69752 -5.03125,13.73047 -2.75004,3.26789 -5.94139,5.94629 -9.32422,8.40039 -14.94102,6.29708 -31.06807,12.30565 -37.40039,27.0039 -2.26137,6.11415 -2.02014,11.72247 0.82031,17.53516 3.48604,5.94826 9.04156,8.82976 15.50781,10.41406 10.03548,1.98989 19.33552,-0.96015 28.20313,-5.46875 27.78415,-14.55552 43.69341,-22.57712 61.75195,-44.08789 6.82505,-7.13571 11.07132,-15.92968 15.46289,-24.62304 2.45029,-6.14438 4.92578,-12.35176 6.79297,-18.70704 0.0772,-0.34578 0.1446,-0.69373 0.2168,-1.04101 16.74542,-8.41649 16.77578,-7.60978 23.65625,-27.72266 2.4015,-6.82904 2.79371,-14.0588 3.13867,-21.2207 -0.23166,-7.03578 0.72928,-13.89903 1.66406,-20.8418 0.71545,-8.092 1.38452,-16.13647 3.05078,-24.10156 1.36809,-10.0004 5.70882,-19.07594 9.86914,-28.13672 2.78149,-4.48326 4.52548,-9.62218 7.44922,-14.01953 2.01525,-0.45645 4.05576,-0.90354 5.74805,-1.28125 16.83715,-3.39216 34.02293,-4.70198 51.16992,-4.25195 20.98211,1.63619 41.41802,6.89241 61.47461,13.02148 18.38381,5.35215 35.50052,13.90975 52.45703,22.64258 13.98894,7.99808 29.01114,15.64906 39.20899,28.59375 1.65562,2.10157 2.88162,4.50933 4.32226,6.76367 7.72365,15.90422 3.72193,33.45049 1.75586,50.22656 -3.46734,18.58991 -7.02744,37.16783 -9.82422,55.87305 -1.70581,12.2473 -2.58574,24.59073 -3.0039,36.94336 -0.25225,8.48451 -1.32462,13.41928 7.67187,17.07227 19.14831,-1.44468 32.66052,-10.8838 43.17578,-23.40821 0.17172,1.37379 0.35452,2.74828 0.55469,4.1211 3.86313,17.92184 14.16849,32.7272 25.57812,46.63476 10.79343,12.33109 22.77696,23.66788 35.9375,33.4375 7.67207,5.22093 15.80495,9.57054 24.78711,11.96094 3.17016,0.68995 6.3839,1.10366 9.60743,1.23828 0.71975,2.99057 1.67041,5.94776 2.83203,8.87891 1.47236,4.27182 3.49386,8.31189 6.32812,11.73047 1.75446,-19.81657 4.48805,-39.46117 9.89258,-59.07422 1.14399,-4.15152 3.28636,-11.01331 7.17187,-15.64258 -14.71805,4.82024 -21.27147,10.18085 -24.45312,18.89648 -0.25703,-0.15939 -0.51714,-0.31124 -0.77344,-0.47265 -13.18809,-9.18596 -24.97082,-20.3359 -35.55664,-32.40821 -11.00969,-13.26482 -21.09007,-27.34805 -24.51758,-44.62695 -2.58285,-17.69031 -2.6141,-35.47773 -1.84961,-53.30469 1.16472,-3.45076 2.2656,-6.92392 3.25391,-10.43164 1.35424,-7.02754 4.02455,-14.88861 1.06836,-21.79101 -12.54909,-12.21861 -3.69665,-4.93372 -39.77734,21.35547 -1.1895,0.86668 -0.35915,2.92207 -0.50391,4.38671 -0.6836,6.91412 -0.90868,13.80495 -1.08594,20.74805 -0.0111,0.32107 -0.0186,0.64187 -0.0293,0.96289 -3.10622,9.59613 -6.84714,18.98119 -11.11719,28.12305 0.42314,-7.92909 1.1115,-15.84105 2.23242,-23.70899 2.76204,-18.7138 6.3924,-37.2794 9.62695,-55.91406 2.12482,-17.808 5.73632,-36.14931 -2.96094,-52.84961 -1.60527,-2.44989 -2.99115,-5.05887 -4.8164,-7.34961 -10.49964,-13.17713 -25.63499,-21.51208 -39.94141,-29.78906 -17.13445,-8.92407 -34.45106,-17.68306 -53.06054,-23.12891 -20.23597,-6.30727 -40.79444,-11.82927 -61.94922,-13.98046 -4.31048,-0.27069 -8.62315,-0.38693 -12.93555,-0.36524 z m -60.75195,16.34961 c -0.0142,0.0169 -0.10708,0.0768 -0.29688,0.18945 -2.16315,1.28454 -4.34353,2.54143 -6.52539,3.79493 0.60559,-0.45027 1.21783,-0.88927 1.85742,-1.28907 1.31028,-0.81903 5.06399,-2.81378 4.96485,-2.69531 z m -76.79883,118.17969 c -1.4e-4,0.013 -0.002,0.026 -0.002,0.0391 -0.76599,0.41979 -1.40291,0.7734 -2.73438,1.50195 0.0237,-0.0369 0.042,-0.0745 0.0664,-0.11132 1.67631,-0.8998 1.79148,-0.95902 2.66992,-1.42969 z m 22.91601,16.6875 c -0.65878,0.56576 -1.20937,1.29044 -1.97656,1.69726 -0.74655,0.39584 -1.55542,0.63065 -2.40234,0.75977 1.49077,-0.83396 2.77926,-1.5697 4.3789,-2.45703 z m 293.8086,1.13281 c 0.62233,1.50257 0.7927,3.23862 0.71289,5.07227 -0.24373,-0.97979 -0.42386,-2.62606 -0.71289,-5.07227 z m -347.51758,24.34766 c 1.19111,0.41175 2.43812,0.74677 3.73047,1.02148 0.33999,0.0421 0.68438,0.0725 1.02539,0.11328 -0.30679,2.55229 -0.83596,5.07796 -1.60352,7.53907 -2.09803,6.06735 -3.9721,12.24714 -6.85742,18 -4.28173,8.52162 -9.15994,16.64038 -15.74609,23.62695 -2.64684,3.01221 -5.30844,5.94168 -8.18164,8.69336 -2.65336,0.41616 -5.3805,0.51042 -8.1875,0.16601 -5.37812,-0.71542 -10.3814,-2.15161 -13.34961,-7.09765 -2.20371,-4.67834 -1.41352,-9.44355 1.03711,-13.92774 1.05442,-1.46564 1.32142,-1.9553 2.26367,-2.84961 4.32862,-2.48536 8.66047,-4.96648 12.98047,-7.46679 1.02318,-0.59222 4.0166,-2.49338 2.98828,-1.91016 -3.59972,2.04163 -9.45657,5.42654 -15.42383,8.88281 0.097,-0.0855 0.15166,-0.14161 0.26172,-0.23633 0.16218,-0.13957 0.49206,-0.36376 0.77539,-0.56835 7.03353,-4.02171 14.0835,-8.01726 21.07813,-12.10547 0.84215,-0.49221 5.66457,-3.78785 6.41406,-4.29688 5.87403,-4.04115 11.49137,-8.57728 15.47851,-14.58008 0.49777,-0.98619 0.92473,-1.99001 1.31641,-3.0039 z m 494.58789,14.21875 -37.75781,19.43554 c 0.2013,4.04433 0.45207,8.09277 1.21875,12.07813 1.52213,7.32748 4.12717,14.31378 5.96875,21.55664 1.97004,7.95844 3.79543,15.9536 5.44531,23.98437 0.31477,1.62414 0.70174,3.22492 1.11719,4.81641 2.42782,-1.67286 5.35266,-2.46365 8.88086,-1.70312 7.06643,1.52322 10.00496,10.43643 15.00781,15.65429 4.27574,5.71472 -2.69079,7.88486 -3.32812,11.98047 -0.0673,0.43245 1.23599,-0.91599 1.22265,-0.47851 -0.12019,3.94881 -1.04717,7.83166 -1.56641,11.74804 -0.13135,0.99081 -0.27393,1.98048 -0.41015,2.97071 0.42062,0.0623 0.84024,0.12782 1.25,0.21289 1.87803,-6.96477 4.72847,-13.63053 6.94922,-20.49414 2.45667,-7.59274 4.70156,-15.25345 7.08593,-22.86914 -0.28032,-2.71461 -0.0456,-5.15542 1.9668,-6.61719 0.25033,-0.18184 0.48556,-0.33956 0.73242,-0.51563 0.27184,-0.63952 0.48728,-1.14804 0.66993,-1.59375 0.28476,-0.84771 0.51321,-1.41909 0.63085,-1.68359 -1.16119,-3.71142 -2.1685,-7.46593 -2.82421,-11.33203 -1.8341,-8.07746 -3.55841,-16.18972 -5.65235,-24.20508 -1.85609,-7.17498 -4.40677,-14.10031 -5.72265,-21.41211 -0.61168,-3.81562 -0.75967,-7.67831 -0.88477,-11.5332 z m 14.45313,70.16601 c -0.15591,0.46413 -0.3018,0.91427 -0.43946,1.4336 0.57725,-0.40929 1.13511,-0.78593 1.69336,-1.16407 -0.2087,-0.63654 -0.41121,-1.27513 -0.61133,-1.91406 -0.0818,0.23887 -0.24718,0.67966 -0.64257,1.64453 z M 167.92969,624.49805 c -0.11662,0.0928 -0.78261,0.51246 -2.125,1.33789 -3.21445,1.97653 -6.44899,3.91968 -9.69727,5.83984 -1.0465,0.5218 -2.11107,1.0323 -3.19531,1.53125 8.36076,-4.90729 15.45614,-9.0581 15.01758,-8.70898 z m 368.79297,34.21484 c 0.15855,-0.0242 -1.23997,1.04895 -4.51954,3.60352 -0.64767,0.12057 -1.28943,0.41151 -1.9414,0.39062 3.8313,-2.37131 6.27772,-3.96613 6.46094,-3.99414 z m -350.64258,0.42773 c -1.78679,1.13675 -3.61646,2.2038 -5.48438,3.17188 1.96681,-1.13582 3.28068,-1.9032 5.48438,-3.17188 z m 462.36328,68.00391 c -1.09115,0.73234 -2.20769,1.47836 -3.07227,2.07227 -0.4358,-0.22701 -0.87389,-0.4487 -1.30664,-0.6836 0.14104,-0.14548 0.18038,-0.18925 0.33008,-0.34375 1.31652,-0.71677 2.7054,-1.05885 4.04883,-1.04492 z" />
    <use
       id="use346"
       inkscape:spray-origin="#path64"
       xlink:href="#path64"
       x="0"
       y="0"
       width="100%"
       height="100%"
       transform="translate(50.943546,-105.47563)" />
    <path
       style="fill:#ff00ff;stroke-width:2.85714293"
       d="m 152,1076.9882 c 0,-0.8424 5.80629,-41.5789 12.90285,-90.52574 7.09657,-48.94683 11.918,-89.90603 10.71429,-91.02046 -1.20371,-1.11446 -30.87013,-28.44014 -65.92536,-60.72376 -35.055234,-32.28362 -63.490792,-59.74238 -63.190127,-61.01945 0.300664,-1.27708 39.859004,-9.08446 87.907427,-17.34974 48.04841,-8.26527 88.25633,-15.97956 89.35093,-17.14285 1.09459,-1.1633 18.19627,-37.42213 38.00374,-80.57518 19.80747,-43.15305 37.01469,-79.4612 38.23826,-80.68478 1.22358,-1.22357 21.20973,33.67565 44.41368,77.55382 37.082,70.12133 43.12077,79.96265 49.88665,81.29973 4.23372,0.83667 42.41195,5.45504 84.84052,10.26304 42.42857,4.80799 80.11554,9.39723 83.74885,10.1983 5.84492,1.28868 -0.57374,8.879 -55.71428,65.88423 -34.27617,35.43527 -62.67166,66.5693 -63.10109,69.18675 -0.42945,2.61746 6.95563,43.23106 16.41132,90.25243 9.45565,47.02136 16.76565,85.91996 16.2444,86.44116 -0.52126,0.5213 -37.80712,-17.0324 -82.85749,-39.0082 l -81.90978,-39.9559 -78.50012,44.2291 c -43.17506,24.3259 -79.16714,44.229 -79.98239,44.229 -0.81525,0 -1.48228,-0.6892 -1.48228,-1.5315 z"
       id="path355"
       inkscape:connector-curvature="0"
       transform="scale(0.26458333)" />
    <path
       style="fill:#ff00ff;stroke-width:2.85714293"
       d="M 228.39383,474.1702 C 203.0044,464.84763 175.91068,447.80551 154.5854,427.7442 116.67235,392.07834 95.176598,349.63514 88.628826,297.51347 81.026458,236.99698 104.02865,172.24837 149.16439,127.11264 200.26956,76.00747 273.74391,54.160676 345.69188,68.677349 c 22.13441,4.465975 80.59383,30.192056 80.59383,35.466701 0,1.46619 -1.20611,8.83623 -2.68022,16.37786 -1.47415,7.54164 -3.46055,19.67959 -4.41426,26.97324 -1.48472,11.35464 -2.63977,13.22421 -8.03406,13.00405 -3.46503,-0.14143 -9.19288,0.72769 -12.7286,1.93136 -5.74888,1.9571 -6.42857,1.25808 -6.42857,-6.6114 v -8.79988 l -20,10.07183 -20,10.07184 v 26.94762 c 0,31.55334 -2.65651,36.16639 -28.46653,49.43241 -25.31224,13.01018 -32.57818,34.25852 -15.53372,45.42648 11.12545,7.28968 25.70058,5.34253 49.34828,-6.59263 29.8246,-15.05268 60.41343,-45.03604 67.86351,-66.52023 3.65829,-10.54962 7.8508,-16.88887 13.20612,-19.96818 10.72248,-6.16542 17.31934,-21.06651 18.75708,-42.36873 0.66289,-9.82143 2.32869,-17.85715 3.70177,-17.85715 4.10775,0 21.91703,25.75833 32.59455,47.14286 16.22525,32.49537 22.29371,62.10689 20.7456,101.22997 -1.02983,26.02508 -2.95897,37.91726 -9.07026,55.91289 -10.60194,31.21923 -27.6904,59.0924 -50.58726,82.51354 -17.35831,17.75574 -19.9996,19.45663 -27.31634,17.59066 -42.27071,-10.78035 -68.13003,-12.38612 -102.38566,-6.35777 -22.03039,3.87694 -52.08034,18.97557 -70.01664,35.17994 -11.96058,10.80566 -11.62386,10.73823 -26.44667,5.29557 z"
       id="path357"
       inkscape:connector-curvature="0"
       transform="scale(0.26458333)" />
    <path
       style="fill:#2b0000;stroke-width:2.85714293"
       d="M 215.28416,467.0058 C 160.85255,441.82303 116.60331,392.4774 98.786929,337.09111 89.087844,306.93929 86.695783,263.21121 93.082181,232.8054 c 5.617043,-26.74289 25.508509,-67.28233 44.348349,-90.38334 26.38588,-32.35381 68.7463,-58.953584 111.37582,-69.937258 26.84966,-6.917926 77.0666,-7.628174 100.33651,-1.419123 18.31335,4.886506 61.82608,22.920772 69.72917,28.899923 5.11688,3.871208 5.23431,5.622738 1.9574,29.193338 -1.91737,13.79127 -4.3852,25.99331 -5.48412,27.11565 -1.09888,1.12235 -6.47891,2.40806 -11.95562,2.85715 -8.44892,0.6928 -10.09623,-0.15752 -10.87238,-5.61205 -0.50311,-3.53572 -1.44382,-6.42858 -2.09051,-6.42858 -0.64666,0 -9.37957,4.04549 -19.40646,8.98998 l -18.23071,8.98997 -1.60438,26.89157 c -1.90155,31.87264 -4.61489,36.99116 -26.13653,49.30459 -18.49187,10.57998 -27.33443,20.74596 -27.33443,31.42545 0,9.25883 9.60884,18.71173 21.42857,21.08079 6.92243,1.38749 6.25341,0.66534 -3.47759,-3.75373 -24.32659,-11.04726 -18.43671,-30.85858 13.99835,-47.08518 11.32921,-5.66776 21.14435,-12.51546 21.81143,-15.21709 0.66708,-2.70163 1.81481,-17.23578 2.5505,-32.2981 l 1.33763,-27.38604 15.52456,-7.61396 c 8.53852,-4.18768 16.13895,-7.61396 16.88983,-7.61396 0.75092,0 1.36529,3.36424 1.36529,7.47609 0,6.4943 0.84423,7.18974 6.42857,5.29557 3.53571,-1.19928 10.46557,-2.22296 15.39966,-2.27484 l 8.97108,-0.0943 2.99334,-23.1886 c 3.61818,-28.02908 12.56869,-53.078382 23.33455,-65.305216 4.38351,-4.978346 17.79357,-14.627346 29.80014,-21.442226 39.08051,-22.181922 82.2816,-25.390524 138.74191,-10.304543 36.04838,9.63199 83.01703,32.871689 100.32246,49.638706 21.49532,20.826539 22.55769,31.994439 9.80346,103.056529 -2.39732,13.35714 -4.26972,28.78571 -4.16089,34.28571 l 0.198,10 5.05857,-11.42857 c 2.78223,-6.28571 5.86698,-18.36321 6.85503,-26.83889 1.64106,-14.0773 3.10143,-16.5845 16.88246,-28.98448 17.8008,-16.01686 23.68943,-14.8417 21.20951,4.23268 -4.70491,36.18833 -5.04237,45.08664 -2.36254,62.29973 1.62217,10.41945 4.97123,23.20517 7.44237,28.41272 6.24986,13.17059 27.64132,38.68104 41.89092,49.95717 l 11.92728,9.43843 9.93215,-8.72055 c 5.46268,-4.7963 10.30105,-8.31984 10.75194,-7.8301 0.45088,0.48974 -1.51189,10.5333 -4.36172,22.31902 -2.84985,11.78571 -6.1262,26.5714 -7.2808,32.85714 l -2.09922,11.42857 -2.96206,-7.85714 c -1.62912,-4.32146 -5.03283,-7.85714 -7.5638,-7.85714 -10.27394,0 -35.25877,-15.82966 -53.50117,-33.8968 -18.4816,-18.30396 -37.93692,-48.50276 -37.93692,-58.88611 0,-3.91456 -2.04891,-3.23236 -10.71428,3.56742 -11.95823,9.38368 -30.18586,16.29208 -36.5464,13.85131 -6.23812,-2.39379 -5.29732,-26.0862 2.97497,-74.91761 11.4192,-67.40775 9.7484,-82.16992 -11.40183,-100.74006 C 664.2366,97.243648 608.71366,71.187805 580.57143,64.084779 536.72049,53.016922 484.56994,54.07635 475.5734,66.217794 c -8.11129,10.94674 -15.37409,37.797856 -19.057,70.455026 -4.62869,41.04365 -7.32906,49.03447 -18.76777,55.53636 -5.20809,2.96032 -9.8684,8.8181 -11.83977,14.88193 -5.53792,17.03456 -16.65912,33.66007 -31.35349,46.87159 -13.66688,12.28769 -49.51725,33.84037 -61.1268,36.74846 -5.2157,1.30648 -5.24629,1.46029 -0.35061,1.76281 10.76987,0.66549 42.62558,-18.14248 63.07564,-37.24058 15.1172,-14.1178 23.14029,-24.38886 29.57709,-37.8642 4.85802,-10.17021 11.5796,-19.96134 14.9368,-21.75806 7.6588,-4.09886 16.83745,-23.90986 17.18485,-37.09144 0.14486,-5.5 1.25106,-12.52581 2.458,-15.6129 1.95586,-5.00269 3.21509,-4.22614 11.58269,7.14285 12.68946,17.24104 30.41894,54.68596 35.74734,75.4989 5.8028,22.66591 5.78292,77.68563 -0.0363,100.228 -9.1094,35.28829 -32.30878,74.66972 -59.59332,101.16095 l -13.08394,12.70351 -25.28134,-4.84637 c -29.11372,-5.58103 -64.93681,-6.2628 -86.79063,-1.6518 -18.89069,3.98583 -44.86221,16.62523 -64.30375,31.29434 -8.18258,6.17397 -17.18258,11.16637 -20,11.09426 -2.81743,-0.072 -13.28758,-3.90863 -23.267,-8.52563 z M 372.755,256.23981 c 19.41889,-24.25673 28.92691,-63.8844 10.14986,-42.3026 -3.64055,4.18431 -14.97629,13.04197 -25.19057,19.68369 -15.83098,10.29391 -18.70382,13.44717 -19.46856,21.36889 -0.72334,7.49279 0.38363,9.80671 5.71428,11.94465 12.46246,4.99826 17.827,3.00583 28.79499,-10.69463 z"
       id="path359"
       inkscape:connector-curvature="0"
       transform="scale(0.26458333)" />
    <path
       style="fill:#ff0000;stroke-width:2.85714293"
       d="m 154.86827,1070.7206 c 0.006,-2.7819 4.37096,-36.5581 9.69964,-75.05806 5.32868,-38.5 10.49299,-76.61568 11.47625,-84.70148 l 1.78775,-14.70152 -56.48739,-52.84375 C 63.206194,789.02757 46.777489,772.8054 49.835165,772.8054 c 0.96877,0 40.076341,-7.01251 86.905715,-15.58336 61.21109,-11.20303 86.08289,-16.86694 88.48337,-20.14979 1.83648,-2.51153 19.21945,-38.54346 38.62883,-80.07095 19.40938,-41.52748 35.97261,-75.53151 36.80719,-75.56449 1.3618,-0.0538 15.47833,25.12401 64.84419,115.6543 8.56894,15.71429 18.35734,31.38578 21.752,34.82554 5.5104,5.58361 14.28945,7.1983 81.8864,15.06103 41.64285,4.8438 80.13977,9.77435 85.54865,10.95676 l 9.8344,2.14985 -39.8344,42.25572 c -66.26274,70.29053 -81.26294,87.50639 -81.26294,93.26619 0,3.03071 7.14332,42.35423 15.874,87.38554 8.73072,45.03136 15.45449,82.29476 14.94169,82.80746 -0.51277,0.5128 -36.73815,-16.3439 -80.50083,-37.4593 -43.76266,-21.1154 -80.6437,-38.39164 -81.95784,-38.39164 -1.31413,0 -31.69635,16.52624 -67.51603,36.72494 -88.74476,50.0433 -89.41521,50.3736 -89.40129,44.0474 z"
       id="path361"
       inkscape:connector-curvature="0"
       transform="scale(0.26458333)" />
    <path
       style="fill:#e6e6e6;stroke-width:2.85714293"
       d="m 640.87763,769.23397 c -2.68237,-7.96886 -5.19697,-10.72114 -9.81349,-10.74108 -23.22628,-0.10035 -80.84151,-56.7029 -86.49343,-84.9732 -1.02102,-5.10715 -2.20937,-9.28572 -2.64074,-9.28572 -0.43137,0 -7.47128,4.5 -15.64426,10 -9.73825,6.55337 -18.2076,10 -24.57282,10 H 492 l 0.0229,-20.71428 c 0.0143,-11.39286 3.22757,-39.22796 7.14285,-61.85579 3.91658,-22.62783 7.12,-46.13341 7.12,-52.23463 0,-25.9978 -15.65597,-42.64493 -61.25882,-65.137 -49.39586,-24.36285 -98.07626,-33.59944 -143.83548,-27.29127 -14.46439,1.99401 -15.38305,2.65067 -22.01355,15.73532 -9.00854,17.77751 -12.36293,32.34556 -15.4801,67.22991 -2.81273,31.47726 -8.78587,47.73805 -19.29465,52.52617 -3.74196,1.70495 -8.14425,6.65143 -9.78288,10.99217 -12.21271,32.35155 -36.48817,58.1011 -71.41478,75.75134 -32.1176,16.23069 -54.06259,13.19347 -54.06259,-7.48235 0,-11.69162 6.67128,-18.9346 27.8249,-30.20937 9.11586,-4.8587 18.40497,-11.70543 20.64248,-15.21496 2.46921,-3.87298 4.54827,-16.81862 5.28963,-32.93693 l 1.22144,-26.55596 14.65363,-7.71339 c 8.0595,-4.24236 15.61792,-8.14932 16.79649,-8.68213 1.17857,-0.53281 2.14286,3.04077 2.14286,7.94129 0,7.92374 0.61175,8.58265 5.52645,5.95239 3.03955,-1.62672 9.92232,-2.95767 15.29504,-2.95767 h 9.76859 l 1.78903,-21.16429 c 3.74934,-44.35463 18.32913,-68.28702 53.5868,-87.96148 26.31567,-14.68464 46.06479,-19.38651 81.58642,-19.42408 59.65401,-0.0631 157.76144,43.52195 171.39087,76.14181 5.37928,12.87445 4.90508,34.10933 -1.58735,71.08074 -7.96051,45.33148 -9.69911,60.37582 -6.592,57.04158 5.36546,-5.75763 12.09426,-27.58364 12.12935,-39.34353 0.0329,-11.06159 1.37228,-13.25699 15.8146,-25.92365 19.9604,-17.5063 26.08325,-16.63671 22.39588,3.18072 -1.38311,7.43327 -2.49857,27.65789 -2.4788,44.94361 0.0306,26.62241 1.00357,33.39472 6.36346,44.28571 7.75703,15.76183 23.16657,34.64927 41.25108,50.56137 l 13.62686,11.98995 8.76649,-8.76652 c 4.82157,-4.82156 9.43617,-8.09682 10.25465,-7.27833 0.81849,0.81848 -0.036,7.08222 -1.89874,13.91942 -1.8628,6.8372 -4.92408,22.07411 -6.80286,33.85983 l -3.41597,21.42857 z M 176.98037,657.8054 c 13.92823,-14.43702 29.14212,-50.71429 21.26846,-50.71429 -1.27743,0 -6.09886,3.9447 -10.71428,8.766 -4.61543,4.8213 -15.23713,12.68454 -23.60377,17.47388 -18.51903,10.6009 -23.77942,19.6889 -16.227,28.03423 7.76454,8.57972 18.86731,7.2297 29.27659,-3.55982 z"
       id="path363"
       inkscape:connector-curvature="0"
       transform="scale(0.26458333)" />
    <path
       style="fill:url(#meshgradient367);stroke-width:2.85714293;fill-opacity:1"
       d="m 156.30802,1065.2497 c 3.30209,-18.858 21.40627,-158.22039 21.40627,-164.78119 0,-4.59022 -3.32867,-9.91188 -9.28572,-14.84537 C 154.51753,874.10234 51.6227,775.08307 52.590463,774.14809 c 0.46096,-0.44534 26.552394,-5.45295 57.980967,-11.12802 74.90655,-13.52591 110.67626,-21.48127 114.70154,-25.51018 1.80014,-1.80175 18.84717,-36.00866 37.88229,-76.01534 19.03512,-40.00669 35.60562,-73.73574 36.82333,-74.95346 1.21772,-1.21771 18.24212,26.90815 37.83201,62.50191 43.76557,79.51966 47.93437,85.51723 61.96971,89.15423 5.93512,1.53798 43.57683,6.81584 83.64826,11.72856 40.07143,4.91273 73.725,9.8204 74.78572,10.90592 1.06071,1.08553 -15.48732,20.61655 -36.77338,43.40226 -63.93371,68.438 -78.01234,85.14389 -78.01234,92.57054 0,3.751 6.5108,41.74615 14.46846,84.43363 7.95766,42.68746 14.0648,78.69596 13.57143,80.01866 -0.49337,1.3228 -35.61132,-14.1262 -78.03989,-34.3311 C 351,1006.7209 314.47144,990.13529 312.254,990.06891 c -2.21744,-0.0663 -36.28887,17.82869 -75.71429,39.76679 -39.42541,21.9381 -73.92755,40.7166 -76.67142,41.73 -4.18657,1.5462 -4.75912,0.5305 -3.56027,-6.316 z"
       id="path365"
       inkscape:connector-curvature="0"
       transform="scale(0.26458333)" />
    <path
       style="fill:none;fill-rule:evenodd;stroke:#000000;stroke-width:0.26458332px;stroke-linecap:butt;stroke-linejoin:miter;stroke-opacity:1"
       d="m 77.107142,216.86904 3.16031,-98.52743"
       id="path381"
       inkscape:connector-type="polyline"
       inkscape:connector-curvature="0" />
    <path
       style="display:inline;fill:none;fill-rule:evenodd;stroke:#000000;stroke-width:0.26458332px;stroke-linecap:butt;stroke-linejoin:miter;stroke-opacity:1"
       d="M 80.267452,118.34161 117.31938,235.70595"
       id="path383"
       inkscape:connector-type="polyline"
       inkscape:connector-curvature="0" />
    <path
       style="display:inline;fill:none;fill-rule:evenodd;stroke:#000000;stroke-width:0.26458332px;stroke-linecap:butt;stroke-linejoin:miter;stroke-opacity:1"
       d="m 133.04762,212.33333 -55.940478,4.53571"
       id="path385"
       inkscape:connector-type="polyline"
       inkscape:connector-curvature="0" />
  </g>
</svg>
